<svg width="72" height="76" viewBox="0 0 72 76" fill="none" xmlns="http://www.w3.org/2000/svg">
<g clip-path="url(#clip0_1317_1150)">
<path fill-rule="evenodd" clip-rule="evenodd" d="M69.0104 55.9108C43.3729 60.7202 22.983 40.9797 11.309 16.9158C11.1078 16.5028 10.6428 16.3211 10.2715 16.5127C9.90022 16.7043 9.76025 17.1952 9.96146 17.6082C21.9611 42.3466 43.0081 62.4816 69.3638 57.5371C69.7746 57.4609 70.0288 57.034 69.9318 56.5836C69.8355 56.1352 69.4229 55.8341 69.0104 55.9108Z" fill="#2F3F60"/>
<path fill-rule="evenodd" clip-rule="evenodd" d="M10.854 17.7138C11.9924 18.5614 13.4112 19.6414 13.5752 19.7591C18.0204 22.949 22.6443 25.2539 27.6994 26.9297C28.1096 27.0662 28.5251 26.8228 28.6265 26.3883C28.7279 25.9538 28.4759 25.4898 28.0657 25.3533C23.1634 23.7299 18.6785 21.4958 14.3669 18.401C14.1155 18.2208 10.9274 15.791 10.2515 15.3497C9.97494 15.1673 9.77115 15.1534 9.72305 15.155C9.46681 15.1532 9.30677 15.2667 9.20165 15.3805C9.08391 15.51 8.94098 15.7783 8.96705 16.1894C8.99594 16.6195 9.2575 17.5051 9.30708 17.7333C10.0464 21.1776 11.1464 24.9708 11.5125 28.6522C11.8619 32.1629 11.5433 35.5761 9.47384 38.4357C9.2216 38.7835 9.29364 39.3055 9.63265 39.5996C9.97166 39.8937 10.4524 39.8484 10.7046 39.5006C13.0176 36.3029 13.426 32.5018 13.0359 28.5786C12.6715 24.9189 11.6051 21.1517 10.854 17.7138Z" fill="#2F3F60"/>
</g>
<defs>
<clipPath id="clip0_1317_1150">
<rect width="60.3828" height="54.7705" fill="white" transform="translate(51.5408 0.0400391) rotate(70.2254)"/>
</clipPath>
</defs>
</svg>
