<svg width="60" height="66" viewBox="0 0 60 66" fill="none" xmlns="http://www.w3.org/2000/svg">
<g clip-path="url(#clip0_1317_1126)">
<path fill-rule="evenodd" clip-rule="evenodd" d="M2.57629 58.4386C27.971 56.7842 42.6171 32.6347 47.9965 6.44284C48.0896 5.99315 48.4868 5.70252 48.8833 5.79676C49.2798 5.89099 49.5279 6.33214 49.4348 6.78183C43.9061 33.7076 28.7311 58.4011 2.62487 60.1013C2.21819 60.1287 1.87703 59.7777 1.86275 59.3174C1.84827 58.8592 2.16776 58.4658 2.57629 58.4386Z" fill="#2F3F60"/>
<path fill-rule="evenodd" clip-rule="evenodd" d="M48.6152 7.104C47.7375 8.20561 46.6492 9.60149 46.5217 9.75594C43.0664 13.9416 39.2335 17.3138 34.8444 20.1826C34.4884 20.4159 34.0378 20.2825 33.8395 19.8864C33.6412 19.4904 33.7704 18.9787 34.1264 18.7454C38.3833 15.965 42.1013 12.6957 45.4526 8.63506C45.6481 8.39852 48.0928 5.25894 48.6285 4.66485C48.8472 4.42005 49.0368 4.35639 49.0827 4.34614C49.3248 4.28128 49.5029 4.35177 49.6292 4.43617C49.7712 4.5327 49.9696 4.75742 50.0418 5.16214C50.1158 5.58608 50.0768 6.50853 50.0837 6.74184C50.1953 10.2613 50.0478 14.2077 50.5685 17.8649C51.0648 21.3527 52.1703 24.5813 54.8023 26.8425C55.1229 27.1174 55.1777 27.6409 54.9262 28.0094C54.6746 28.3778 54.209 28.4524 53.8884 28.1774C50.9463 25.6487 49.6645 22.0662 49.1096 18.1688C48.5923 14.533 48.7141 10.6201 48.6152 7.104Z" fill="#2F3F60"/>
</g>
<defs>
<clipPath id="clip0_1317_1126">
<rect width="60.3828" height="53.3998" fill="white" transform="matrix(-0.0985101 0.995136 0.995136 0.0985101 5.94824 0)"/>
</clipPath>
</defs>
</svg>
