<svg width="24" height="24" viewBox="0 0 24 24" fill="none" xmlns="http://www.w3.org/2000/svg">
<path d="M5.3657 3.14571L9.07713 6.85714H2.64855C2.77973 6.06914 3.09389 5.32289 3.56578 4.67832C4.03767 4.03375 4.65415 3.50882 5.3657 3.14571ZM10.3543 2.57143H7.71427C7.55141 2.57143 7.38855 2.58 7.2257 2.58857L11.4943 6.85714H14.64L10.3543 2.57143ZM16.2857 2.57143H12.7886L17.0743 6.85714H21.3514C21.1506 5.65892 20.5314 4.57072 19.6039 3.78602C18.6764 3.00131 17.5006 2.57094 16.2857 2.57143ZM10.6988 16.8223L14.9845 14.4651C15.119 14.3913 15.2313 14.2827 15.3095 14.1506C15.3877 14.0185 15.4289 13.8678 15.4289 13.7143C15.4289 13.5608 15.3877 13.4101 15.3095 13.278C15.2313 13.1459 15.119 13.0373 14.9845 12.9634L10.6988 10.6063C10.5683 10.5345 10.4213 10.498 10.2724 10.5003C10.1235 10.5026 9.97773 10.5437 9.84952 10.6195C9.72131 10.6953 9.61506 10.8031 9.54125 10.9325C9.46743 11.0619 9.42859 11.2082 9.42855 11.3571V16.0714C9.42859 16.2204 9.46743 16.3667 9.54125 16.4961C9.61506 16.6254 9.72131 16.7333 9.84952 16.8091C9.97773 16.8849 10.1235 16.926 10.2724 16.9283C10.4213 16.9306 10.5683 16.8941 10.6988 16.8223ZM21.4286 8.57143V16.2857C21.4275 17.6493 20.8853 18.9568 19.921 19.9211C18.9568 20.8853 17.6493 21.4275 16.2857 21.4286H7.71427C6.35063 21.4275 5.04316 20.8853 4.07892 19.9211C3.11469 18.9568 2.5725 17.6493 2.57141 16.2857V8.57143H21.4286Z" fill="white"/>
</svg>
