<svg width="49" height="49" viewBox="0 0 49 49" fill="none" xmlns="http://www.w3.org/2000/svg">
<g filter="url(#filter0_b_1317_1114)">
<circle cx="24.0337" cy="24.0337" r="24.0337" fill="#F7524B"/>
</g>
<path fill-rule="evenodd" clip-rule="evenodd" d="M21.9438 14.6292H23.138C26.5188 14.6292 29.3527 17.0193 30.1067 20.2346C30.2352 20.7829 30.3033 21.3553 30.3033 21.9438C30.3033 25.9835 27.0953 29.2584 23.138 29.2584H18.7688H15.9727C14.6536 29.2584 13.5842 28.1668 13.5842 26.8202V23.1629C13.5842 18.4499 17.3269 14.6292 21.9438 14.6292ZM23.4366 31.3483H19.9146C21.207 32.6411 22.977 33.4382 24.9293 33.4382H29.2985H32.0947C33.4138 33.4382 34.4831 32.3466 34.4831 31V27.3427C34.4831 25.1767 33.6926 23.1992 32.3901 21.6944C32.3922 21.7773 32.3932 21.8604 32.3932 21.9438C32.3932 27.1378 28.3832 31.3483 23.4366 31.3483Z" fill="white"/>
<defs>
<filter id="filter0_b_1317_1114" x="-30" y="-30" width="108.067" height="108.067" filterUnits="userSpaceOnUse" color-interpolation-filters="sRGB">
<feFlood flood-opacity="0" result="BackgroundImageFix"/>
<feGaussianBlur in="BackgroundImageFix" stdDeviation="15"/>
<feComposite in2="SourceAlpha" operator="in" result="effect1_backgroundBlur_1317_1114"/>
<feBlend mode="normal" in="SourceGraphic" in2="effect1_backgroundBlur_1317_1114" result="shape"/>
</filter>
</defs>
</svg>
