<svg width="24" height="24" viewBox="0 0 24 24" fill="none" xmlns="http://www.w3.org/2000/svg">
<g clip-path="url(#clip0_1317_1087)">
<path d="M21.75 4.09125V6.46875H0.75V4.09125C0.75 3.22875 1.4475 2.53125 2.31 2.53125H20.19C21.0525 2.53125 21.75 3.22875 21.75 4.09125Z" fill="white"/>
<path d="M10.3125 10.5938H12.1875V12.4688H10.3125V10.5938Z" fill="white"/>
<path d="M4.3125 10.5938V12.4688H6.1875V10.5938H4.3125ZM4.3125 10.5938V12.4688H6.1875V10.5938H4.3125ZM0.75 7.59375V20.4713C0.75 21.3338 1.4475 22.0312 2.31 22.0312H14.0025C13.4475 21.1688 13.125 20.1338 13.125 19.0312C13.125 15.9263 15.645 13.4062 18.75 13.4062C19.8525 13.4062 20.8875 13.7288 21.75 14.2838V7.59375H0.75ZM7.3125 19.0312C7.3125 19.3387 7.0575 19.5938 6.75 19.5938H3.75C3.4425 19.5938 3.1875 19.3387 3.1875 19.0312V16.0312C3.1875 15.7238 3.4425 15.4688 3.75 15.4688H6.75C7.0575 15.4688 7.3125 15.7238 7.3125 16.0312V19.0312ZM7.3125 13.0312C7.3125 13.3387 7.0575 13.5938 6.75 13.5938H3.75C3.4425 13.5938 3.1875 13.3387 3.1875 13.0312V10.0312C3.1875 9.72375 3.4425 9.46875 3.75 9.46875H6.75C7.0575 9.46875 7.3125 9.72375 7.3125 10.0312V13.0312ZM13.3125 13.0312C13.3125 13.3387 13.0575 13.5938 12.75 13.5938H9.75C9.4425 13.5938 9.1875 13.3387 9.1875 13.0312V10.0312C9.1875 9.72375 9.4425 9.46875 9.75 9.46875H12.75C13.0575 9.46875 13.3125 9.72375 13.3125 10.0312V13.0312ZM4.3125 18.4688H6.1875V16.5938H4.3125V18.4688ZM4.3125 12.4688H6.1875V10.5938H4.3125V12.4688Z" fill="white"/>
<path d="M11.25 4.59375C10.9394 4.59375 10.6875 4.34182 10.6875 4.03125V1.03125C10.6875 0.720675 10.9394 0.46875 11.25 0.46875C11.5606 0.46875 11.8125 0.720675 11.8125 1.03125V4.03125C11.8125 4.34182 11.5606 4.59375 11.25 4.59375Z" fill="white"/>
<path d="M3.75 4.59375C3.43943 4.59375 3.1875 4.34182 3.1875 4.03125V1.03125C3.1875 0.720675 3.43943 0.46875 3.75 0.46875C4.06057 0.46875 4.3125 0.720675 4.3125 1.03125V4.03125C4.3125 4.34182 4.06057 4.59375 3.75 4.59375Z" fill="white"/>
<path d="M18.75 4.59375C18.4394 4.59375 18.1875 4.34182 18.1875 4.03125V1.03125C18.1875 0.720675 18.4394 0.46875 18.75 0.46875C19.0606 0.46875 19.3125 0.720675 19.3125 1.03125V4.03125C19.3125 4.34182 19.0606 4.59375 18.75 4.59375Z" fill="white"/>
<path d="M18.75 14.5312C16.2675 14.5312 14.25 16.5488 14.25 19.0312C14.25 21.5137 16.2675 23.5312 18.75 23.5312C21.2325 23.5312 23.25 21.5137 23.25 19.0312C23.25 16.5488 21.2325 14.5312 18.75 14.5312ZM20.25 19.5938H18.75C18.4425 19.5938 18.1875 19.3387 18.1875 19.0312V16.7812C18.1875 16.4738 18.4425 16.2188 18.75 16.2188C19.0575 16.2188 19.3125 16.4738 19.3125 16.7812V18.4688H20.25C20.5575 18.4688 20.8125 18.7238 20.8125 19.0312C20.8125 19.3387 20.5575 19.5938 20.25 19.5938Z" fill="white"/>
</g>
<defs>
<clipPath id="clip0_1317_1087">
<rect width="24" height="24" fill="white"/>
</clipPath>
</defs>
</svg>
