<svg width="133" height="42" viewBox="0 0 133 42" fill="none" xmlns="http://www.w3.org/2000/svg">
<path d="M14.0345 34.9099C13.7824 34.9099 13.6563 34.9099 13.5302 34.8159C13.4042 33.8761 12.7739 33.6881 11.7654 34.252C11.2612 34.252 10.7571 34.064 10.631 33.5941C10.5049 32.6543 10.505 31.6205 8.99231 31.1506C6.97544 30.4927 6.72329 30.0228 6.9754 28.4251C7.10145 27.6732 7.73171 27.2973 8.61409 27.8612C9.74857 28.6131 11.0092 28.1432 12.1437 28.2371C12.1437 27.9552 12.1437 27.8612 12.1437 27.8612C11.8916 27.6732 10.571 29.594 10.3189 29.5C8.176 29.0301 7.85778 26.0755 8.23594 24.1959C8.36199 23.7259 6.68415 24.1019 6.30599 24.1959C4.54123 24.7598 4.58042 22.5042 3.31988 22.2223C2.56355 22.0343 1.68113 22.0343 1.93323 21.0945C1.93323 21.0005 1.30296 18.369 1.30296 18.275C0.672694 16.9592 1.80721 16.3954 3.06775 15.8315C4.07618 15.3616 5.0846 14.7976 5.33671 13.8578C6.97541 12.73 9.24439 13.1999 11.0091 12.4481C11.5134 11.7902 11.0091 11.0384 10.5049 10.6624C8.23592 8.40686 9.11835 5.96332 10.0007 3.61376C10.631 1.92207 12.7739 1.35816 14.9168 0.888245C17.69 0.32435 20.5893 0.13642 23.4885 0.0424378C28.5307 -0.145527 33.4468 0.324373 38.4889 0.794285C40.0016 0.98225 41.5143 0.888279 43.0269 0.982261C50.9683 1.35819 58.9097 1.82808 66.8511 2.01604C71.6411 2.11003 76.4312 1.92205 81.2213 1.82807C85.7592 1.73409 90.2972 1.73412 94.8351 1.92209C100.634 2.11005 106.432 2.67391 112.105 3.70772C115.886 4.36559 119.037 5.9633 122.063 7.65499C123.954 8.68879 123.575 10.4744 123.575 11.9782C123.575 13.012 122.945 14.0458 122.315 14.9856C121.937 15.6435 121.811 16.2074 122.819 16.6773C126.223 18.275 127.735 20.5306 126.223 23.538C125.592 24.7598 126.223 25.1357 127.609 25.6996C135.172 28.6131 133.786 33.97 129.5 36.8835C128.113 37.7293 126.601 38.4812 124.836 38.9511C120.55 39.9849 116.264 40.7368 111.726 41.1127C101.894 41.8645 92.0619 41.3947 82.2297 41.3947C78.0699 41.3947 73.7841 41.0187 69.6243 40.6428C66.599 40.3608 63.6998 39.9849 60.6745 40.0789C59.1618 40.0789 57.6492 40.0789 56.2626 39.609C56.1365 37.5414 55.3802 37.2594 52.8591 36.9775C50.338 36.6955 48.1951 37.7293 45.674 37.5414C44.5395 37.4474 43.9093 38.1993 43.4051 38.8571C43.153 38.8571 43.0269 38.8571 42.7748 38.8571C42.3966 37.3534 40.3797 37.1655 39.1192 36.3196C38.1108 36.8835 37.8586 37.5414 37.8586 38.2932C36.5981 38.7631 35.4636 37.8233 34.3292 38.2932C33.4468 37.1654 31.9341 36.7895 30.2954 36.6956C27.7743 36.5076 25.2532 36.5076 22.7322 36.2257C20.5892 36.0377 18.4463 35.6617 16.8076 34.5339C15.295 33.5001 14.6647 34.064 14.0345 34.9099ZM127.861 33.3122C127.987 33.2182 128.239 33.2182 128.365 33.1242C129.5 32.2783 128.744 30.3047 127.231 30.0228C126.853 29.9288 126.475 30.1168 126.223 30.3987C125.971 30.7747 126.853 33.0302 127.231 33.3122C127.483 33.2182 127.609 33.2182 127.861 33.3122Z" fill="#F7524B"/>
<path d="M6.23108 13.9519C5.85292 14.8917 4.97056 15.4556 3.96212 15.9255C2.70158 16.4894 1.56707 17.0533 2.19734 18.3691C2.19734 18.4631 2.82761 21.0946 2.82761 21.1886C2.5755 22.1284 3.58398 22.1283 4.21425 22.3163C5.60084 22.5982 6.48324 23.82 8.24799 23.2561C8.62616 23.1621 9.25637 23.8201 9.13031 24.29C8.8782 26.1696 10.2648 27.0154 12.4078 27.4853C12.6599 27.5793 12.912 27.7673 13.038 27.9552C13.038 27.9552 13.038 28.1432 13.038 28.3312C11.7775 28.2372 10.643 28.7071 9.50854 27.9552C8.62616 27.3913 8.12188 27.7673 7.86977 28.5192C7.61766 30.0229 7.86982 30.5867 9.88668 31.2446C11.3993 31.7145 11.3993 32.7484 11.5254 33.6882C8.12191 33.1243 7.36562 30.9627 6.35718 28.9891C6.10507 28.6132 6.60928 28.3312 6.73533 27.9552C6.98744 27.2974 7.99586 26.9214 7.74375 26.0756C5.47477 25.7936 3.45788 24.9478 2.19734 23.4441C0.0544174 20.8126 -0.954 19.3089 1.18892 16.6774C2.57551 15.3616 3.83606 14.0459 6.23108 13.9519Z" fill="#F7524B"/>
<path d="M12.2683 34.1247C12.8267 32.6258 13.4281 31.611 14.9464 33.1319C16.9203 35.1091 19.3006 35.4353 21.6666 35.6001C24.4595 35.8984 27.2094 35.7125 29.9879 35.8494C31.7896 35.89 33.4969 36.424 34.6314 38.2956C28.8568 38.6859 23.1336 38.0986 17.3387 36.7044C15.6314 36.1704 14.2219 34.3174 12.2683 34.1247Z" fill="#F7524B"/>
<path d="M43.1528 38.8572C43.657 38.1993 45.3008 35.4061 46.4353 35.5C48.8303 35.688 51.8056 35.2181 54.3267 35.5C56.8478 35.782 56.6282 37.4324 56.7543 39.5001C52.3424 39.688 47.4387 39.3271 43.1528 38.8572Z" fill="#F7524B"/>
<path d="M37.7324 38.2932C37.7324 37.5414 38.5475 36.0639 39.556 35.5C40.8165 36.3458 43.0647 37.4963 43.5689 39C41.9302 38.7181 39.2451 39.2331 37.7324 38.2932Z" fill="#F7524B"/>
<path d="M11.4655 33.0799C12.7758 31.16 13.5948 31.8001 13.7586 35C12.9396 35 11.9568 34.9999 11.4655 33.0799Z" fill="#F7524B"/>
<path d="M126.65 35C126.338 35 125.714 34.8056 125.402 34.8056C124.155 34.2223 121.972 29.5555 122.908 28.7777C123.531 28.1944 124.155 28 125.402 28C129.144 28.5833 131.016 32.6667 128.209 34.4167C127.585 34.8056 126.962 34.8056 126.65 35Z" fill="#F7524B"/>
</svg>
