<svg width="20" height="20" viewBox="0 0 20 20" fill="none" xmlns="http://www.w3.org/2000/svg">
<path d="M9.99992 10C10.4583 10 10.8508 9.83667 11.1774 9.51C11.5041 9.18333 11.6671 8.79111 11.6666 8.33333C11.6666 7.875 11.5033 7.4825 11.1766 7.15583C10.8499 6.82917 10.4577 6.66611 9.99992 6.66667C9.54159 6.66667 9.14909 6.83 8.82242 7.15667C8.49575 7.48333 8.3327 7.87555 8.33325 8.33333C8.33325 8.79167 8.49659 9.18417 8.82325 9.51083C9.14992 9.8375 9.54214 10.0006 9.99992 10ZM9.99992 18.3333C7.76381 16.4306 6.09381 14.6633 4.98992 13.0317C3.88603 11.4 3.33381 9.88944 3.33325 8.5C3.33325 6.41667 4.00353 4.75694 5.34409 3.52083C6.68464 2.28472 8.23659 1.66667 9.99992 1.66667C11.7638 1.66667 13.316 2.28472 14.6566 3.52083C15.9971 4.75694 16.6671 6.41667 16.6666 8.5C16.6666 9.88889 16.1144 11.3994 15.0099 13.0317C13.9055 14.6639 12.2355 16.4311 9.99992 18.3333Z" fill="#2F3F60"/>
</svg>
