<svg width="49" height="49" viewBox="0 0 49 49" fill="none" xmlns="http://www.w3.org/2000/svg">
<g filter="url(#filter0_b_1317_1109)">
<circle cx="24.0337" cy="24.0337" r="24.0337" fill="#F7524B"/>
</g>
<path fill-rule="evenodd" clip-rule="evenodd" d="M34.4831 17.2415C34.4831 19.2614 32.8457 20.8989 30.8258 20.8989C29.6751 20.8989 28.6485 20.3674 27.9781 19.5366C27.9545 19.5517 27.93 19.5657 27.9044 19.5785L20.8639 23.0987C20.8386 23.1114 20.8129 23.1225 20.7869 23.1322C20.86 23.4206 20.8988 23.7226 20.8988 24.0337C20.8988 24.3448 20.86 24.6468 20.7869 24.9351C20.8129 24.9448 20.8386 24.956 20.8639 24.9687L27.9044 28.4889C27.93 28.5017 27.9545 28.5157 27.9781 28.5308C28.6485 27.7 29.6751 27.1685 30.8258 27.1685C32.8457 27.1685 34.4831 28.8059 34.4831 30.8258C34.4831 32.8457 32.8457 34.4831 30.8258 34.4831C28.8059 34.4831 27.1685 32.8457 27.1685 30.8258C27.1685 30.5147 27.2073 30.2127 27.2804 29.9244C27.2545 29.9147 27.2288 29.9035 27.2034 29.8908L20.163 26.3706C20.1374 26.3578 20.1128 26.3438 20.0893 26.3287C19.4188 27.1595 18.3922 27.691 17.2415 27.691C15.2217 27.691 13.5842 26.0536 13.5842 24.0337C13.5842 22.0138 15.2217 20.3764 17.2415 20.3764C18.3923 20.3764 19.4188 20.9078 20.0893 21.7387C20.1128 21.7235 20.1374 21.7096 20.163 21.6968L27.2034 18.1765C27.2288 18.1639 27.2545 18.1527 27.2804 18.143C27.2073 17.8546 27.1685 17.5526 27.1685 17.2415C27.1685 15.2217 28.8059 13.5842 30.8258 13.5842C32.8457 13.5842 34.4831 15.2217 34.4831 17.2415Z" fill="white"/>
<defs>
<filter id="filter0_b_1317_1109" x="-30" y="-30" width="108.067" height="108.067" filterUnits="userSpaceOnUse" color-interpolation-filters="sRGB">
<feFlood flood-opacity="0" result="BackgroundImageFix"/>
<feGaussianBlur in="BackgroundImageFix" stdDeviation="15"/>
<feComposite in2="SourceAlpha" operator="in" result="effect1_backgroundBlur_1317_1109"/>
<feBlend mode="normal" in="SourceGraphic" in2="effect1_backgroundBlur_1317_1109" result="shape"/>
</filter>
</defs>
</svg>
