<svg width="105" height="25" viewBox="0 0 105 25" fill="none" xmlns="http://www.w3.org/2000/svg">
<path d="M22.0469 12.875C22.0469 7.355 17.5669 2.875 12.0469 2.875C6.52688 2.875 2.04688 7.355 2.04688 12.875C2.04688 17.715 5.48688 21.745 10.0469 22.675V15.875H8.04688V12.875H10.0469V10.375C10.0469 8.445 11.6169 6.875 13.5469 6.875H16.0469V9.875H14.0469C13.4969 9.875 13.0469 10.325 13.0469 10.875V12.875H16.0469V15.875H13.0469V22.825C18.0969 22.325 22.0469 18.065 22.0469 12.875Z" fill="white"/>
<path d="M55.0469 12.875C55.0469 13.4683 54.8709 14.0484 54.5413 14.5417C54.2116 15.0351 53.7431 15.4196 53.1949 15.6466C52.6467 15.8737 52.0435 15.9331 51.4616 15.8174C50.8797 15.7016 50.3451 15.4159 49.9256 14.9963C49.506 14.5768 49.2203 14.0422 49.1045 13.4603C48.9888 12.8783 49.0482 12.2751 49.2752 11.7269C49.5023 11.1788 49.8868 10.7102 50.3802 10.3806C50.8735 10.0509 51.4535 9.875 52.0469 9.875C52.8418 9.87747 53.6034 10.1943 54.1655 10.7564C54.7275 11.3185 55.0444 12.0801 55.0469 12.875V12.875ZM61.4219 8.75V17C61.4219 18.3924 60.8688 19.7277 59.8842 20.7123C58.8996 21.6969 57.5643 22.25 56.1719 22.25H47.9219C46.5295 22.25 45.1941 21.6969 44.2096 20.7123C43.225 19.7277 42.6719 18.3924 42.6719 17V8.75C42.6719 7.35761 43.225 6.02226 44.2096 5.03769C45.1941 4.05312 46.5295 3.5 47.9219 3.5H56.1719C57.5643 3.5 58.8996 4.05312 59.8842 5.03769C60.8688 6.02226 61.4219 7.35761 61.4219 8.75V8.75ZM56.5469 12.875C56.5469 11.985 56.283 11.115 55.7885 10.3749C55.294 9.63491 54.5912 9.05814 53.769 8.71754C52.9467 8.37695 52.0419 8.28783 51.169 8.46147C50.2961 8.6351 49.4942 9.06368 48.8649 9.69302C48.2356 10.3224 47.807 11.1242 47.6333 11.9971C47.4597 12.87 47.5488 13.7748 47.8894 14.5971C48.23 15.4193 48.8068 16.1221 49.5468 16.6166C50.2868 17.1111 51.1569 17.375 52.0469 17.375C53.2403 17.375 54.3849 16.9009 55.2289 16.057C56.0728 15.2131 56.5469 14.0685 56.5469 12.875ZM58.0469 8C58.0469 7.7775 57.9809 7.55999 57.8573 7.37498C57.7337 7.18998 57.558 7.04578 57.3524 6.96064C57.1468 6.87549 56.9206 6.85321 56.7024 6.89662C56.4842 6.94002 56.2837 7.04717 56.1264 7.2045C55.969 7.36184 55.8619 7.56229 55.8185 7.78052C55.7751 7.99875 55.7974 8.22495 55.8825 8.43052C55.9677 8.63609 56.1119 8.81179 56.2969 8.9354C56.4819 9.05902 56.6994 9.125 56.9219 9.125C57.2202 9.125 57.5064 9.00647 57.7174 8.7955C57.9283 8.58452 58.0469 8.29837 58.0469 8Z" fill="white"/>
<path d="M92.0468 2.92944C86.554 2.92944 82.1013 7.38213 82.1013 12.875C82.1013 18.3678 86.554 22.8205 92.0468 22.8205C97.5396 22.8205 101.992 18.3678 101.992 12.875C101.992 7.38213 97.5396 2.92944 92.0468 2.92944ZM89.6122 16.9972H87.5983V10.516H89.6122V16.9972ZM88.5928 9.72036C87.9567 9.72036 87.5454 9.2697 87.5454 8.71234C87.5454 8.14358 87.9692 7.70639 88.6187 7.70639C89.2683 7.70639 89.6661 8.14358 89.6786 8.71234C89.6786 9.2697 89.2683 9.72036 88.5928 9.72036ZM96.9678 16.9972H94.9538V13.4054C94.9538 12.5693 94.6617 12.0016 93.9334 12.0016C93.377 12.0016 93.0466 12.386 92.9005 12.7558C92.8466 12.8874 92.8331 13.0739 92.8331 13.2593V16.9961H90.8181V12.5828C90.8181 11.7737 90.7922 11.0972 90.7653 10.515H92.5151L92.6073 11.4152H92.6477C92.9129 10.9926 93.5625 10.3689 94.6492 10.3689C95.9743 10.3689 96.9678 11.2567 96.9678 13.165V16.9972V16.9972Z" fill="white"/>
</svg>
