<svg width="24" height="24" viewBox="0 0 24 24" fill="none" xmlns="http://www.w3.org/2000/svg">
<path d="M18.9759 20.1337C20.2633 20.1337 21.307 19.0901 21.307 17.8027C21.307 16.5152 20.2633 15.4716 18.9759 15.4716C17.6884 15.4716 16.6448 16.5152 16.6448 17.8027C16.6448 19.0901 17.6884 20.1337 18.9759 20.1337Z" fill="white"/>
<path d="M5.02396 20.1337C6.31139 20.1337 7.35506 19.0901 7.35506 17.8027C7.35506 16.5152 6.31139 15.4716 5.02396 15.4716C3.73654 15.4716 2.69287 16.5152 2.69287 17.8027C2.69287 19.0901 3.73654 20.1337 5.02396 20.1337Z" fill="white"/>
<path d="M23.961 15.668C23.7773 14.8472 23.5931 14.0095 23.4093 13.1555C23.2767 12.5428 22.8164 12.0267 22.2224 11.8303C20.8912 11.3962 19.5581 10.9402 18.2231 10.4859C18.0295 9.41859 17.7693 8.61797 17.542 8.01656C17.1281 6.93422 15.9201 5.94234 14.8012 5.73187C14.5223 5.67703 14.0423 5.61703 13.4892 5.5664C13.4854 5.55 13.4812 5.53312 13.476 5.51672C13.3546 5.15015 13.2328 4.76812 13.1109 4.37343C13.0368 4.13531 12.8278 3.9525 12.591 3.93281C11.4937 3.84422 10.3912 3.84422 9.29433 3.93281C9.05808 3.95297 8.84854 4.13578 8.77448 4.37343C8.65261 4.76812 8.53073 5.15015 8.40933 5.51672C8.40136 5.54062 8.39526 5.56453 8.39104 5.58843C7.92979 5.63484 7.53558 5.68687 7.29323 5.73515C6.17198 5.94984 4.94948 6.96187 4.52011 8.06625C4.27495 8.70562 3.99042 9.56437 3.77901 10.7208C3.00042 11.078 2.22229 11.4286 1.44511 11.7656C0.872763 12.0164 0.459326 12.5569 0.376357 13.1662C0.255888 14.0536 0.13542 14.9302 0.0154198 15.795C-0.117705 16.7381 0.628076 17.6873 1.59886 17.8064C1.68042 17.8153 1.76245 17.8237 1.84401 17.8322C1.84401 17.8223 1.84308 17.812 1.84308 17.8022C1.84308 16.0486 3.26995 14.6217 5.02354 14.6217C6.77714 14.6217 8.20401 16.0486 8.20401 17.8022C8.20401 17.97 8.19089 18.135 8.16558 18.2958C10.7203 18.398 13.2782 18.398 15.8329 18.2958C15.8076 18.135 15.7945 17.97 15.7945 17.8022C15.7945 16.0486 17.2214 14.6217 18.9749 14.6217C20.7285 14.6217 22.1554 16.0486 22.1554 17.8022C22.1554 17.812 22.1549 17.8223 22.1545 17.8322C22.236 17.8233 22.3176 17.8153 22.3996 17.8064C23.4234 17.6789 24.1823 16.643 23.9601 15.668H23.961ZM10.2201 9.49453C10.2201 9.79031 9.98011 10.0303 9.68433 10.0303H5.95589C5.59401 10.0303 5.33667 9.67875 5.44495 9.33375C5.54386 9.01734 5.63948 8.75531 5.72058 8.5439C5.98308 7.87125 6.81839 7.16578 7.50979 7.03359L7.51401 7.03265L7.51823 7.03171C7.88058 6.96 8.75808 6.86437 9.65339 6.81046C9.96089 6.79218 10.2201 7.03734 10.2201 7.34531V9.49453ZM16.0504 10.0303H12.2465C11.9507 10.0303 11.7107 9.79031 11.7107 9.49453V7.33922C11.7107 7.03172 11.9695 6.78703 12.2765 6.80437C13.2065 6.85593 14.1379 6.95531 14.5143 7.0289L14.5195 7.02984L14.5246 7.03078C15.2085 7.15968 16.0256 7.83937 16.2745 8.48672C16.3593 8.71172 16.461 8.99531 16.5642 9.34265C16.6659 9.68578 16.4081 10.0303 16.0504 10.0303Z" fill="white"/>
</svg>
